#!OML:ASF H:\Dans Jumps\Project 1\Capture day 1\Session 1\subject.ASF
:FULLY-SPECIFIED
:DEGREES
402
root 0.338779 17.9644 -1.09889 10.4325 2.65601 -1.52994
lowerback -2.36461 -0.397252 -1.19242
upperback 2.26717 -0.531709 1.50113
thorax 3.68521 -0.31772 2.18644
lowerneck -11.4151 -0.627266 -1.5709
upperneck 34.4522 -0.971785 1.3655
head 13.5354 -0.441653 0.678963
rclavicle -1.16786e-015 -3.37934e-015
rhumerus -23.7034 -11.9604 -83.3915
rradius 28.8195
rwrist 31.3846
rhand -23.489 -27.9895
rfingers 7.12502
rthumb 2.97088 -57.9486
lclavicle -1.16786e-015 -3.37934e-015
lhumerus -28.9571 5.06319 82.5676
lradius 15.1794
lwrist 9.8514
lhand -24.6817 -9.00186
lfingers 7.12502
lthumb 1.81897 20.9701
rfemur -15.1306 -2.67283 20.5763
rtibia 20.1449
rfoot -11.0024 0.644437
rtoes 16.9399
lfemur -12.3213 5.77 -17.4836
ltibia 16.317
lfoot -8.20176 2.23816
ltoes 6.04191
403
root 0.334779 17.9663 -1.07915 10.4653 2.66842 -1.3961
lowerback -2.41845 -0.41188 -1.24375
upperback 2.25486 -0.546905 1.44551
thorax 3.70357 -0.325907 2.15675
lowerneck -11.4347 -0.619271 -1.6269
upperneck 34.4032 -0.944683 1.36742
head 13.5179 -0.436691 0.693236
rclavicle -3.40419e-015 -5.26779e-015
rhumerus -23.8357 -11.5933 -83.5421
rradius 28.9436
rwrist 31.2684
rhand -23.5018 -27.9554
rfingers 7.12502
rthumb 2.95848 -57.9147
lclavicle -3.40419e-015 -5.26779e-015
lhumerus -29.208 4.55198 82.7994
lradius 15.322
lwrist 9.99279
lhand -24.4747 -8.64867
lfingers 7.12502
lthumb 2.01893 21.3215
rfemur -15.1387 -2.70485 20.4387
rtibia 20.2506
rfoot -11.0757 0.67711
rtoes 16.8831
lfemur -12.1398 5.84498 -17.6029
ltibia 16.0444
lfoot -8.16651 2.08562
ltoes 6.16374
404
root 0.330623 17.9651 -1.06031 10.4824 2.68607 -1.26209
lowerback -2.4595 -0.428827 -1.30017
upperback 2.243 -0.565154 1.39464
thorax 3.71542 -0.335766 2.13468
lowerneck -11.4461 -0.612177 -1.68989
upperneck 34.3547 -0.918198 1.37213
head 13.4989 -0.43253 0.709769
rclavicle -8.3738e-015 -5.86415e-015
rhumerus -23.9516 -11.2829 -83.6636
rradius 29.0241
rwrist 31.1416
rhand -23.483 -27.9604
rfingers 7.12502
rthumb 2.97669 -57.9193
lclavicle -8.3738e-015 -5.86415e-015
lhumerus -29.4274 4.15593 82.9976
lradius 15.4342
lwrist 10.0871
lhand -24.3126 -8.25827
lfingers 7.12502
lthumb 2.17546 21.7104
rfemur -15.1371 -2.71654 20.3032
rtibia 20.368
rfoot -11.1882 0.668917
rtoes 16.7933
lfemur -11.9605 5.95168 -17.728
ltibia 15.8077
lfoot -8.17039 1.93439
ltoes 6.31849
405
root 0.326355 17.9614 -1.04215 10.485 2.71199 -1.12468
lowerback -2.49001 -0.44747 -1.36179
upperback 2.23014 -0.585522 1.3453
thorax 3.72046 -0.346768 2.11704
lowerneck -11.4481 -0.606196 -1.75441
upperneck 34.3135 -0.894199 1.37983
head 13.4812 -0.429254 0.727445
rclavicle -2.95692e-015 -7.95139e-016
rhumerus -24.0522 -11.0444 -83.7541
rradius 29.0579
rwrist 31.0273
rhand -23.4325 -27.9804
rfingers 7.12502
rthumb 3.02543 -57.9387
lclavicle -2.95692e-015 -7.95139e-016
lhumerus -29.6181 3.85806 83.165
lradius 15.512
lwrist 10.1641
lhand -24.1855 -7.8827
lfingers 7.12502
lthumb 2.29817 22.0847
rfemur -15.1218 -2.72151 20.1672
rtibia 20.49
rfoot -11.3353 0.630769
rtoes 16.7138
lfemur -11.7853 6.08334 -17.8632
ltibia 15.6046
lfoot -8.20858 1.78871
ltoes 6.50502
406
root 0.321907 17.9553 -1.02476 10.4758 2.74533 -0.998424
lowerback -2.51134 -0.467239 -1.41535
upperback 2.21481 -0.607945 1.30141
thorax 3.71781 -0.358564 2.10042
lowerneck -11.4449 -0.598548 -1.81085
upperneck 34.2891 -0.868564 1.38294
head 13.4696 -0.424837 0.742233
rclavicle -3.75206e-015 1.8487e-014
rhumerus -24.1388 -10.872 -83.8148
rradius 29.0432
rwrist 30.9438
rhand -23.3754 -27.9952
rfingers 7.12502
rthumb 3.08055 -57.9527
lclavicle -3.75206e-015 1.8487e-014
lhumerus -29.7817 3.64588 83.3037
lradius 15.5545
lwrist 10.236
lhand -24.1158 -7.55244
lfingers 7.12502
lthumb 2.36554 22.4142
rfemur -15.0907 -2.71862 20.048
rtibia 20.6062
rfoot -11.5129 0.562227
rtoes 16.6514
lfemur -11.6181 6.22797 -17.9907
ltibia 15.4351
lfoot -8.27895 1.65902
ltoes 6.72192
407
root 0.317459 17.9474 -1.00775 10.4531 2.78593 -0.887007
lowerback -2.52616 -0.488981 -1.45719
upperback 2.19905 -0.633789 1.26489
thorax 3.71117 -0.371812 2.08466
lowerneck -11.4374 -0.58864 -1.86088
upperneck 34.2845 -0.839787 1.3808
head 13.4656 -0.418952 0.754407
rclavicle -6.28657e-015 -7.55382e-015
rhumerus -24.2037 -10.7523 -83.8483
rradius 28.9748
rwrist 30.8952
rhand -23.3135 -28.0123
rfingers 7.12502
rthumb 3.14031 -57.9689
lclavicle -6.28657e-015 -7.55382e-015
lhumerus -29.9167 3.53921 83.4069
lradius 15.5413
lwrist 10.2612
lhand -24.1133 -7.49314
lfingers 7.12502
lthumb 2.36791 22.4735
rfemur -15.0342 -2.72186 19.9497
rtibia 20.7035
rfoot -11.7135 0.475802
rtoes 16.5864
lfemur -11.4571 6.37132 -18.1053
ltibia 15.3019
lfoot -8.37988 1.55469
ltoes 6.96416
408
root 0.313212 17.938 -0.991092 10.4132 2.82624 -0.786097
lowerback -2.53187 -0.508358 -1.48925
upperback 2.1854 -0.657112 1.23227
thorax 3.70136 -0.383587 2.06762
lowerneck -11.4288 -0.578095 -1.8932
upperneck 34.3045 -0.810039 1.36442
head 13.472 -0.412266 0.75814
rclavicle -8.19987e-016 4.47266e-015
rhumerus -24.2519 -10.6935 -83.8529
rradius 28.8589
rwrist 30.9173
rhand -23.2908 -27.9835
rfingers 7.12502
rthumb 3.16231 -57.9398
lclavicle -8.19987e-016 4.47266e-015
lhumerus -30.0196 3.50725 83.484
lradius 15.4785
lwrist 10.2475
lhand -24.1397 -7.57802
lfingers 7.12502
lthumb 2.34241 22.3889
rfemur -14.9414 -2.72972 19.8646
rtibia 20.7682
rfoot -11.9272 0.382714
rtoes 16.5463
lfemur -11.3004 6.50424 -18.2118
ltibia 15.2109
lfoot -8.5066 1.48917
ltoes 7.16903
409
root 0.309101 17.9274 -0.974891 10.3589 2.86923 -0.725738
lowerback -2.53343 -0.527106 -1.48564
upperback 2.17835 -0.681668 1.21483
thorax 3.69582 -0.395352 2.04617
lowerneck -11.431 -0.565679 -1.9146
upperneck 34.3463 -0.776146 1.33562
head 13.4902 -0.404028 0.755781
rclavicle 1.0138e-014 1.68967e-015
rhumerus -24.2664 -10.6733 -83.8344
rradius 28.6946
rwrist 30.9938
rhand -23.2744 -27.9547
rfingers 7.12502
rthumb 3.17808 -57.9107
lclavicle 1.0138e-014 1.68967e-015
lhumerus -30.0792 3.56516 83.5341
lradius 15.3773
lwrist 10.185
lhand -24.1798 -7.80136
lfingers 7.12502
lthumb 2.30368 22.166
rfemur -14.8122 -2.73833 19.8259
rtibia 20.7895
rfoot -12.1433 0.284581
rtoes 16.5217
lfemur -11.1543 6.61984 -18.2751
ltibia 15.1655
lfoot -8.66056 1.46605
ltoes 7.36406
410
root 0.305356 17.9159 -0.959035 10.287 2.91298 -0.711611
lowerback -2.52922 -0.543923 -1.43962
upperback 2.17999 -0.706078 1.21438
thorax 3.69563 -0.406297 2.01845
lowerneck -11.4378 -0.553484 -1.93071
upperneck 34.4026 -0.741563 1.29973
head 13.5157 -0.395787 0.749877
rclavicle -6.55989e-015 3.77691e-015
rhumerus -24.2505 -10.6812 -83.794
rradius 28.4934
rwrist 31.1193
rhand -23.2601 -27.938
rfingers 7.12502
rthumb 3.19194 -57.8939
lclavicle -6.55989e-015 3.77691e-015
lhumerus -30.0938 3.70517 83.5648
lradius 15.2431
lwrist 10.0463
lhand -24.2608 -8.10981
lfingers 7.12502
lthumb 2.22552 21.8583
rfemur -14.6413 -2.75164 19.8379
rtibia 20.7627
rfoot -12.3552 0.193089
rtoes 16.5155
lfemur -11.0142 6.71241 -18.2881
ltibia 15.1663
lfoot -8.83723 1.49192
ltoes 7.5101
411
root 0.302014 17.9038 -0.943578 10.1998 2.95903 -0.74052
lowerback -2.51932 -0.559446 -1.35255
upperback 2.18918 -0.73104 1.22851
thorax 3.69965 -0.416743 1.98271
lowerneck -11.4444 -0.5412 -1.94083
upperneck 34.4678 -0.707272 1.26026
head 13.5452 -0.38743 0.741498
rclavicle 9.91439e-015 3.08116e-015
rhumerus -24.2065 -10.7241 -83.7335
rradius 28.2574
rwrist 31.3056
rhand -23.2528 -27.9244
rfingers 7.12502
rthumb 3.19894 -57.8802
lclavicle 9.91439e-015 3.08116e-015
lhumerus -30.065 3.91256 83.5795
lradius 15.091
lwrist 9.83209
lhand -24.3357 -8.35986
lfingers 7.12502
lthumb 2.15319 21.609
rfemur -14.4314 -2.77281 19.8965
rtibia 20.6875
rfoot -12.5576 0.11077
rtoes 16.5165
lfemur -10.8839 6.78673 -18.2542
ltibia 15.2127
lfoot -9.03985 1.55569
ltoes 7.63113
412
root 0.299064 17.8914 -0.928688 10.1045 3.00456 -0.80806
lowerback -2.50824 -0.572425 -1.22929
upperback 2.20572 -0.754591 1.25579
thorax 3.71016 -0.425821 1.94028
lowerneck -11.4536 -0.529138 -1.94749
upperneck 34.5365 -0.674529 1.22181
head 13.5769 -0.3792 0.732702
rclavicle 1.08586e-014 -7.05686e-015
rhumerus -24.134 -10.7975 -83.655
rradius 27.9946
rwrist 31.5423
rhand -23.2581 -27.9126
rfingers 7.12502
rthumb 3.19384 -57.8684
lclavicle 1.08586e-014 -7.05686e-015
lhumerus -29.9905 4.17389 83.5858
lradius 14.9287
lwrist 9.53473
lhand -24.4211 -8.55082
lfingers 7.12502
lthumb 2.07065 21.4189
rfemur -14.1968 -2.79592 19.9965
rtibia 20.5725
rfoot -12.7446 0.0361504
rtoes 16.5261
lfemur -10.766 6.84108 -18.1781
ltibia 15.2941
lfoot -9.26244 1.65596
ltoes 7.74233
413
root 0.296608 17.879 -0.9143 10.004 3.04978 -0.904325
lowerback -2.49558 -0.582455 -1.07717
upperback 2.22592 -0.775738 1.29199
thorax 3.72311 -0.433082 1.89101
lowerneck -11.4612 -0.516959 -1.94818
upperneck 34.6092 -0.643213 1.18343
head 13.6101 -0.370838 0.722681
rclavicle 6.31141e-015 9.44227e-015
rhumerus -24.0471 -10.9056 -83.5587
rradius 27.7187
rwrist 31.8286
rhand -23.2618 -27.9101
rfingers 7.12502
rthumb 3.19028 -57.866
lclavicle 6.31141e-015 9.44227e-015
lhumerus -29.8792 4.4554 83.5962
lradius 14.7734
lwrist 9.18393
lhand -24.4799 -8.60512
lfingers 7.12502
lthumb 2.01386 21.3651
rfemur -13.9486 -2.82569 20.1264
rtibia 20.4343
rfoot -12.9205 -0.0268596
rtoes 16.5377
lfemur -10.6543 6.87371 -18.0707
ltibia 15.3933
lfoot -9.49679 1.78771
ltoes 7.85649
414
root 0.294577 17.8667 -0.900593 9.90826 3.08887 -1.01506
lowerback -2.48519 -0.587403 -0.911297
upperback 2.24486 -0.790772 1.33163
thorax 3.73559 -0.436933 1.8379
lowerneck -11.4639 -0.505959 -1.94021
upperneck 34.6842 -0.61664 1.14697
head 13.6434 -0.363177 0.711201
rclavicle -1.98785e-016 6.75868e-015
rhumerus -23.9573 -11.0543 -83.445
rradius 27.4408
rwrist 32.1573
rhand -23.2728 -27.9218
rfingers 7.12502
rthumb 3.1797 -57.8778
lclavicle -1.98785e-016 6.75868e-015
lhumerus -29.7374 4.72784 83.6203
lradius 14.6467
lwrist 8.81884
lhand -24.4899 -8.40865
lfingers 7.12502
lthumb 2.00422 21.5617
rfemur -13.7089 -2.85942 20.2711
rtibia 20.2915
rfoot -13.0868 -0.0801629
rtoes 16.5394
lfemur -10.5512 6.88644 -17.949
ltibia 15.4937
lfoot -9.73077 1.94724
ltoes 7.96826
415
root 0.293001 17.8548 -0.887467 9.82393 3.11599 -1.11615
lowerback -2.48284 -0.588559 -0.758057
upperback 2.26032 -0.800131 1.36962
thorax 3.74893 -0.438219 1.79047
lowerneck -11.4652 -0.496264 -1.92943
upperneck 34.7629 -0.594051 1.11423
head 13.6781 -0.356416 0.700128
rclavicle -1.50579e-014 6.95746e-015
rhumerus -23.8654 -11.2405 -83.3139
rradius 27.1588
rwrist 32.5207
rhand -23.2833 -27.9402
rfingers 7.12502
rthumb 3.16953 -57.8964
lclavicle -1.50579e-014 6.95746e-015
lhumerus -29.5814 4.9732 83.666
lradius 14.5556
lwrist 8.46109
lhand -24.4817 -8.13508
lfingers 7.12502
lthumb 2.01212 21.8352
rfemur -13.4936 -2.90268 20.4038
rtibia 20.1628
rfoot -13.2474 -0.118283
rtoes 16.5356
lfemur -10.4532 6.88088 -17.8405
ltibia 15.5803
lfoot -9.95514 2.12802
ltoes 8.09144
